<?xml version="1.0" standalone="no"?>
<!DOCTYPE svg PUBLIC "-//W3C//DTD SVG 20010904//EN"
 "http://www.w3.org/TR/2001/REC-SVG-20010904/DTD/svg10.dtd">
<svg version="1.0" xmlns="http://www.w3.org/2000/svg"
 width="1088.000000pt" height="1088.000000pt" viewBox="0 0 1088.000000 1088.000000"
 preserveAspectRatio="xMidYMid meet">
<metadata>
Created by potrace 1.14, written by Peter Selinger 2001-2017
</metadata>
<g transform="translate(0.000000,1088.000000) scale(0.100000,-0.100000)"
fill="#000000" stroke="none">
<path d="M2750 8322 c0 -4 -8 -8 -17 -8 -25 -1 -119 -12 -236 -29 -130 -19
-474 -119 -554 -160 -15 -8 -32 -15 -36 -15 -4 0 -52 -21 -105 -47 -357 -173
-648 -397 -881 -678 -94 -113 -112 -135 -126 -157 -5 -9 -45 -70 -88 -137 -43
-67 -81 -129 -84 -139 -4 -9 -9 -19 -12 -22 -7 -6 -112 -220 -116 -235 -2 -12
-29 -80 -66 -170 -7 -18 -19 -55 -25 -80 -2 -5 -10 -35 -19 -65 -26 -86 -49
-180 -61 -244 -2 -16 -6 -32 -8 -35 -2 -3 -7 -31 -11 -61 -4 -30 -8 -57 -10
-60 -2 -3 -6 -34 -10 -70 -4 -36 -9 -78 -11 -95 -24 -185 -24 -628 1 -860 7
-69 30 -232 40 -290 24 -134 68 -328 84 -370 5 -11 25 -72 46 -135 21 -63 49
-139 62 -169 12 -29 23 -60 23 -67 0 -8 5 -14 10 -14 6 0 10 -5 10 -10 0 -29
152 -311 207 -385 5 -6 24 -33 43 -60 19 -28 39 -55 45 -61 5 -6 19 -23 30
-38 56 -77 208 -234 295 -306 30 -25 57 -47 60 -51 3 -3 32 -25 65 -50 33 -24
61 -47 63 -51 2 -5 7 -8 12 -8 5 0 32 -16 62 -35 72 -48 310 -168 378 -190 30
-10 60 -20 65 -24 6 -3 12 -6 15 -7 3 0 12 -3 20 -7 77 -30 311 -89 408 -102
15 -3 38 -7 51 -9 13 -3 49 -8 80 -12 31 -3 65 -8 76 -10 118 -23 581 -21 800
2 89 10 93 10 190 29 50 9 101 19 115 21 14 2 43 8 65 14 22 5 72 17 110 26
74 17 200 52 375 104 116 35 275 70 333 74 21 2 39 5 41 7 2 2 7 28 11 58 4
30 9 63 11 75 3 12 7 35 9 51 3 17 7 41 11 55 3 14 7 36 9 50 1 14 6 41 10 60
4 19 8 46 10 60 9 65 22 145 25 145 1 0 3 14 5 30 2 17 6 41 8 55 3 14 9 48
13 75 4 28 9 57 11 65 1 8 5 29 8 45 2 17 7 41 9 55 3 14 8 41 10 60 3 19 8
47 11 63 17 89 18 85 -46 92 -23 3 -60 7 -83 11 -23 3 -57 7 -76 9 -19 2 -70
9 -113 15 -42 6 -95 12 -116 14 l-38 3 -38 -91 c-21 -50 -49 -113 -62 -140
-12 -28 -23 -53 -23 -57 0 -5 -13 -36 -29 -71 -17 -35 -49 -108 -71 -163 -23
-55 -51 -119 -61 -142 -10 -23 -19 -46 -19 -52 0 -11 -41 -53 -86 -88 -68 -53
-286 -147 -391 -168 -107 -22 -177 -31 -313 -40 -162 -10 -411 -5 -482 11 -13
3 -36 7 -53 10 -16 2 -41 7 -55 11 -14 3 -32 8 -42 9 -79 16 -315 114 -330
137 -4 7 -8 8 -8 4 0 -18 -187 123 -269 203 -129 125 -222 245 -338 435 -27
45 -103 205 -133 280 -61 154 -147 436 -165 545 -2 14 -7 36 -10 50 -13 62
-39 225 -50 320 -4 36 -9 74 -11 85 -25 126 -24 812 1 990 2 17 7 53 10 80 3
28 8 60 10 72 3 12 7 40 10 64 3 23 17 92 31 153 13 61 27 122 30 136 2 14 12
48 20 75 20 64 21 68 23 77 1 5 13 38 27 75 15 38 26 74 27 81 0 6 4 12 9 12
4 0 8 6 8 13 0 6 10 32 22 57 12 25 22 47 23 50 6 23 140 261 167 295 4 6 35
46 69 90 63 81 187 209 248 255 18 14 38 30 44 35 22 20 152 102 207 131 56
31 202 93 230 99 8 2 49 13 90 23 42 11 98 23 125 26 28 3 61 8 75 11 27 7
354 7 410 1 19 -2 65 -7 101 -10 36 -4 79 -9 95 -12 125 -21 158 -28 229 -45
101 -25 185 -54 255 -87 86 -41 102 -61 116 -147 3 -16 12 -64 20 -105 9 -41
18 -86 20 -100 2 -14 7 -36 10 -50 3 -14 8 -35 10 -47 6 -33 11 -61 24 -123 6
-30 13 -66 15 -80 2 -14 11 -56 19 -95 8 -38 17 -81 19 -95 3 -14 10 -54 17
-90 7 -36 13 -70 14 -77 1 -7 6 -16 10 -20 4 -4 122 -8 261 -8 220 0 253 2
253 15 -1 8 3 74 7 145 4 72 8 167 9 212 0 46 3 83 6 83 3 0 5 28 6 63 1 34 4
109 8 167 3 58 9 155 11 215 3 61 7 136 10 167 2 31 7 115 11 186 l6 129 -58
11 c-95 17 -267 50 -289 55 -30 7 -166 35 -200 41 -16 3 -57 11 -90 17 -91 16
-100 17 -100 19 0 1 -13 3 -30 5 -16 2 -46 6 -65 9 -62 9 -114 18 -143 22 -16
3 -52 7 -80 9 -29 3 -63 7 -77 9 -29 5 -134 15 -230 23 -109 8 -483 10 -510 3
-14 -4 -35 -3 -48 1 -12 5 -22 5 -22 1z"/>
<path d="M5394 8073 c0 -187 1 -193 21 -195 42 -3 51 -4 85 -11 19 -4 58 -9
85 -12 28 -3 57 -8 65 -10 8 -2 38 -7 65 -10 28 -3 75 -10 105 -15 30 -5 73
-12 95 -15 50 -6 97 -15 104 -20 7 -4 7 -4762 1 -4769 -3 -2 -34 -7 -70 -11
-36 -4 -68 -9 -71 -10 -3 -2 -39 -7 -80 -11 -89 -8 -110 -10 -169 -18 -25 -4
-61 -8 -80 -10 -107 -11 -160 -19 -161 -25 -4 -35 -2 -355 2 -363 4 -6 21 -9
38 -6 17 2 31 2 31 -1 0 -3 25 -6 55 -6 30 0 55 3 55 6 0 3 19 3 43 0 23 -4
59 -4 79 0 21 3 40 4 43 1 6 -6 104 -6 111 0 2 3 21 2 42 -2 20 -3 48 -4 62 0
14 4 36 4 50 0 14 -3 42 -3 63 1 20 3 37 4 37 0 0 -5 96 -6 110 0 3 1 9 1 14
0 12 -3 370 -2 382 0 5 1 11 1 14 0 17 -7 110 -5 110 2 0 5 4 6 8 3 5 -3 30
-5 58 -5 69 -1 92 -2 152 -4 28 -1 52 0 52 3 0 3 27 3 61 0 33 -3 63 -2 65 2
3 5 9 6 14 3 5 -3 31 -5 57 -5 49 1 61 0 146 -3 26 -1 47 1 47 4 0 3 19 3 43
0 23 -3 58 -4 77 -1 l35 5 0 180 c1 142 -2 182 -13 188 -7 5 -39 11 -70 13
-31 2 -68 6 -81 9 -13 2 -58 7 -100 10 -42 3 -83 8 -91 10 -8 2 -51 7 -95 10
-44 3 -87 8 -95 10 -8 2 -44 7 -79 10 -35 3 -67 7 -70 9 -9 6 -6 1484 3 1493
4 4 35 39 69 77 34 38 76 84 92 102 17 18 46 51 65 74 19 23 49 56 65 74 57
63 185 206 242 272 70 81 145 165 186 210 l48 52 33 -36 c18 -20 65 -80 104
-132 40 -52 75 -99 80 -105 4 -5 22 -32 39 -60 18 -27 36 -55 40 -60 28 -35
93 -137 93 -144 0 -5 3 -11 8 -13 7 -3 89 -130 118 -183 6 -11 31 -54 56 -95
24 -41 56 -95 70 -120 44 -79 70 -124 89 -155 10 -16 23 -39 29 -50 5 -11 23
-42 40 -70 16 -27 37 -63 45 -80 8 -16 20 -37 25 -45 24 -37 100 -171 100
-177 0 -4 6 -14 14 -22 7 -9 29 -45 48 -81 40 -74 62 -112 107 -188 17 -29 31
-55 31 -58 0 -3 15 -28 33 -57 18 -29 47 -77 64 -107 44 -80 234 -396 273
-455 60 -89 132 -179 184 -229 65 -62 123 -88 190 -86 42 1 119 1 161 -1 24
-1 133 0 160 2 17 0 37 1 45 0 37 -3 104 1 112 5 4 3 8 2 8 -3 0 -4 24 -7 52
-5 29 1 59 3 66 3 6 0 32 0 57 0 25 0 52 0 60 0 8 0 35 0 60 0 25 0 53 0 63 0
125 -2 184 -1 192 4 6 3 10 1 10 -6 0 -8 4 -8 13 -1 11 9 14 59 6 98 -1 5 0
14 1 19 1 6 1 35 0 65 -1 30 -1 62 -1 70 1 8 2 41 3 72 2 34 -1 58 -7 59 -5 0
-17 2 -25 4 -8 2 -26 6 -40 9 -316 68 -344 79 -428 168 -76 80 -93 103 -203
266 -60 90 -109 165 -109 166 0 2 -31 51 -70 110 -38 58 -70 110 -70 115 0 5
-3 11 -8 13 -4 2 -39 53 -77 113 -38 61 -88 138 -110 172 -22 34 -71 112 -110
173 -38 61 -76 118 -82 125 -7 7 -13 16 -13 20 0 3 -18 33 -40 65 -22 32 -40
63 -40 69 0 5 -3 11 -7 13 -11 4 -95 131 -124 186 -7 12 -16 22 -21 22 -4 0
-8 6 -8 13 0 7 -9 23 -20 35 -11 12 -20 26 -20 32 0 5 -4 10 -10 10 -5 0 -10
5 -10 11 0 11 -53 91 -77 117 -7 7 -13 18 -13 23 0 5 -5 15 -10 22 -33 38 -80
107 -80 116 0 5 -4 11 -8 13 -5 2 -45 57 -90 123 -154 225 -295 399 -459 563
-57 57 -103 105 -103 107 0 2 11 16 24 30 28 30 139 154 167 186 10 11 49 55
86 97 37 41 76 84 86 96 33 38 141 159 168 188 15 16 53 59 85 95 33 37 77 87
99 111 22 25 49 55 60 67 11 13 50 56 86 96 36 41 88 99 114 129 27 30 58 64
69 75 12 12 39 43 61 70 22 27 60 70 85 96 25 26 52 56 61 66 24 29 182 207
193 219 6 6 43 47 81 89 145 161 120 144 234 161 25 4 55 8 66 10 11 3 36 7
55 9 19 3 51 8 70 11 19 3 49 8 65 10 17 2 41 6 55 9 14 3 43 8 65 11 57 7 97
14 104 19 5 3 7 355 2 375 -2 9 -1879 6 -1887 -3 -8 -7 -9 -365 -2 -372 2 -3
24 -7 48 -10 25 -4 54 -8 65 -10 51 -8 122 -18 145 -20 14 -2 39 -5 55 -8 17
-4 53 -9 80 -12 28 -3 61 -7 75 -10 14 -3 41 -7 60 -9 19 -2 52 -7 72 -11 l37
-7 -32 -41 c-18 -22 -43 -52 -56 -66 -13 -14 -51 -60 -84 -101 -34 -41 -64
-77 -67 -80 -3 -3 -30 -34 -60 -70 -30 -36 -59 -70 -65 -77 -10 -12 -68 -80
-97 -117 -10 -11 -23 -28 -30 -36 -7 -8 -39 -46 -72 -85 -82 -98 -138 -165
-161 -192 -11 -13 -29 -35 -40 -49 -11 -13 -31 -37 -45 -52 -14 -15 -38 -45
-55 -66 -16 -21 -39 -48 -50 -60 -11 -12 -38 -44 -60 -71 -22 -27 -56 -67 -75
-90 -20 -22 -81 -94 -135 -160 -55 -66 -108 -127 -117 -136 -10 -9 -18 -21
-18 -27 0 -6 -4 -12 -9 -14 -7 -2 -319 -370 -435 -512 -37 -45 -93 -111 -121
-142 -12 -12 -32 -37 -45 -55 -14 -18 -30 -37 -35 -43 -6 -6 -44 -51 -85 -101
-41 -49 -77 -92 -80 -95 -3 -3 -31 -35 -62 -72 -31 -37 -58 -62 -60 -55 -8 23
-2 2656 5 2663 4 5 20 9 35 11 27 2 42 5 117 16 22 4 60 9 85 13 25 3 54 7 65
9 11 2 43 6 70 10 28 3 61 8 75 10 14 2 43 7 65 10 101 14 114 17 117 28 2 7
3 93 3 192 l-1 180 -1045 0 -1045 1 0 -193z"/>
</g>
</svg>
